# File created by Blade
# Date/Time:  Thu Jan 22 19:01:23 2015
#---------------------------------------------------------
:version 1.10
:name HOM
:units
  mass 1.0
  length 1.000000
  angle deg
:documentation
     Acclaim Skeleton File
:root
   axis xyz
   order TX TY TZ RX RY RZ
   position 0.000000 0.000000 0.000000
   orientation 0 0 0
:bonedata
   begin
      id 1
      name RightUpLeg_dum
      direction -1.000000 0.000000 0.000000
      length 4.478084
      axis 0.0 0.0 0.0 xyz
   end
   begin
      id 2
      name LeftUpLeg_dum
      direction 1.000000 0.000000 0.000000
      length 4.478084
      axis 0.0 0.0 0.0 xyz
   end
   begin
      id 3
      name Spine_dum
      direction 0.000000 1.000000 0.000000
      length 6.068208
      axis 0.0 0.0 0.0 xyz
   end
   begin
      id 4
      name RightUpLeg
      direction 0.000000 -1.000000 0.000000
      length 16.405774
      axis 0.0 0.0 0.0 xyz
      dof rx ry rz
   end
   begin
      id 5
      name RightLeg
      direction 0.000000 -1.000000 0.000000
      length 14.644143
      axis 0.0 0.0 0.0 xyz
      dof rx ry rz
   end
   begin
      id 6
      name RightFoot
      direction 0.000000 -0.258819 0.965926
      length 5.806150
      axis 15.0 0.0 0.0 xyz
      dof rx ry rz
   end
   begin
      id 7
      name RightToeBase
      direction 0.000000 0.000000 1.000000
      length 2.952750
      axis 0.0 0.0 0.0 xyz
      dof rx ry rz
   end
   begin
      id 8
      name LeftUpLeg
      direction 0.000000 -1.000000 0.000000
      length 16.405774
      axis 0.0 0.0 0.0 xyz
      dof rx ry rz
   end
   begin
      id 9
      name LeftLeg
      direction 0.000000 -1.000000 0.000000
      length 14.644143
      axis 0.0 0.0 0.0 xyz
      dof rx ry rz
   end
   begin
      id 10
      name LeftFoot
      direction 0.000000 -0.258819 0.965926
      length 5.806150
      axis 15.0 0.0 0.0 xyz
      dof rx ry rz
   end
   begin
      id 11
      name LeftToeBase
      direction 0.000000 0.000000 1.000000
      length 2.952750
      axis 0.0 0.0 0.0 xyz
      dof rx ry rz
   end
   begin
      id 12
      name Spine
      direction 0.000000 1.000000 0.000000
      length 0.000000
      axis 0.0 0.0 0.0 xyz
      dof rx ry rz
   end
   begin
      id 13
      name Spine_dum1
      direction 0.000000 1.000000 0.000000
      length 10.013923
      axis 0.0 0.0 0.0 xyz
   end
   begin
      id 14
      name Spine_dum2
      direction 0.000000 1.000000 0.000000
      length 10.013923
      axis 0.0 0.0 0.0 xyz
   end
   begin
      id 15
      name Spine_dum3
      direction 0.000000 1.000000 0.000000
      length 15.777476
      axis 0.0 0.0 0.0 xyz
   end
   begin
      id 16
      name RightShoulder
      direction -1.000000 0.000000 0.000000
      length 7.190220
      axis 0.0 0.0 90.0 xyz
      dof rx ry rz
   end
   begin
      id 17
      name RightArm
      direction -1.000000 0.000000 0.000000
      length 10.177469
      axis 0.0 0.0 90.0 xyz
      dof rx ry rz
   end
   begin
      id 18
      name RightForeArm
      direction -1.000000 0.000000 0.000000
      length 8.392114
      axis 0.0 0.0 90.0 xyz
      dof ry rz rx
   end
   begin
      id 19
      name RightHand
      direction -1.000000 0.000000 0.000000
      length 0.000000
      axis 0.0 0.0 90.0 xyz
      dof rx ry rz
   end
   begin
      id 20
      name RightHand_dum1
      direction -1.000000 0.000000 0.000000
      length 3.937000
      axis 0.0 0.0 90.0 xyz
   end
   begin
      id 21
      name RightHand_dum2
      direction 0.000000 0.000000 0.000000
      length 0.000000
      axis 0.0 0.0 90.0 xyz
   end
   begin
      id 22
      name RightHandThumb1
      direction 0.000000 0.000000 1.000000
      length 3.937000
      axis 0.0 0.0 90.0 xyz
      dof rx rz ry
   end
   begin
      id 23
      name LeftShoulder
      direction 1.000000 0.000000 0.000000
      length 7.190220
      axis 0.0 0.0 -90.0 xyz
      dof rx ry rz
   end
   begin
      id 24
      name LeftArm
      direction 1.000000 0.000000 0.000000
      length 10.177469
      axis 0.0 0.0 -90.0 xyz
      dof rx ry rz
   end
   begin
      id 25
      name LeftForeArm
      direction 1.000000 0.000000 0.000000
      length 8.392114
      axis 0.0 0.0 -90.0 xyz
      dof ry rz rx
   end
   begin
      id 26
      name LeftHand
      direction 1.000000 0.000000 0.000000
      length 0.000000
      axis 0.0 0.0 -90.0 xyz
      dof rx ry rz
   end
   begin
      id 27
      name LeftHand_dum1
      direction 1.000000 0.000000 0.000000
      length 3.937000
      axis 0.0 0.0 -90.0 xyz
   end
   begin
      id 28
      name LeftHand_dum2
      direction 0.000000 0.000000 0.000000
      length 0.000000
      axis 0.0 0.0 -90.0 xyz
   end
   begin
      id 29
      name LeftHandThumb1
      direction 0.000000 0.000000 1.000000
      length 3.937000
      axis 0.0 0.0 -90.0 xyz
      dof rx rz ry
   end
   begin
      id 30
      name Head
      direction 0.000000 1.000000 0.000000
      length 4.527550
      axis 0.0 0.0 0.0 xyz
      dof rx ry rz
   end
:hierarchy
   begin
      root RightUpLeg_dum LeftUpLeg_dum Spine_dum
      RightUpLeg_dum RightUpLeg
      LeftUpLeg_dum LeftUpLeg
      Spine_dum Spine
      RightUpLeg RightLeg
      RightLeg RightFoot
      RightFoot RightToeBase
      LeftUpLeg LeftLeg
      LeftLeg LeftFoot
      LeftFoot LeftToeBase
      Spine Spine_dum1 Spine_dum2 Spine_dum3
      Spine_dum1 RightShoulder
      Spine_dum2 LeftShoulder
      Spine_dum3 Head
      RightShoulder RightArm
      RightArm RightForeArm
      RightForeArm RightHand
      RightHand RightHand_dum1 RightHand_dum2
      RightHand_dum2 RightHandThumb1
      LeftShoulder LeftArm
      LeftArm LeftForeArm
      LeftForeArm LeftHand
      LeftHand LeftHand_dum1 LeftHand_dum2
      LeftHand_dum2 LeftHandThumb1
   end

# File created by Blade
# Date/Time:  Thu Jan 22 19:01:15 2015
# Frame Rate: 120.000 fps
#------------------------------------------------------
:FULLY-SPECIFIED
:DEGREES
1085
root -2.982641 32.597535 -9.966838 65.359045 -3.330900 2.817431
RightUpLeg -75.166311 -2.759086 3.994071
RightLeg -3.422078 -0.000000 0.000000
RightFoot 5.481673 -1.548810 2.932237
RightToeBase 8.026031 -0.000000 -0.000000
LeftUpLeg -73.084436 3.185235 -3.040113
LeftLeg -5.296229 -0.000000 0.000000
LeftFoot 6.877081 3.971387 -11.240714
LeftToeBase 10.602970 -0.000000 -0.000000
Spine 33.238121 -3.241899 -4.478335
RightShoulder -43.853154 -43.728889 3.739765
RightArm -3.858660 -20.561772 78.172013
RightForeArm -23.239173 0.000000 4.219648
RightHand 4.958345 -0.000000 52.351010
RightHandThumb1 -24.326973 -0.000000 -32.862282
LeftShoulder -38.931102 30.919095 8.298605
LeftArm -26.885775 13.995542 -91.762160
LeftForeArm 35.690939 0.000000 0.812991
LeftHand 4.758907 -0.000000 -49.001724
LeftHandThumb1 -26.253704 0.000000 33.147579
Head -60.604517 13.385666 -6.315157
1086
root -2.983224 32.598633 -9.942029 65.195116 -3.352814 2.817436
RightUpLeg -74.859862 -2.749784 3.892306
RightLeg -3.619815 -0.000000 0.000000
RightFoot 5.529363 -1.589762 2.879675
RightToeBase 8.058601 -0.000000 -0.000000
LeftUpLeg -72.795440 3.177498 -2.950394
LeftLeg -5.443718 -0.000000 0.000000
LeftFoot 6.891553 4.066847 -11.242523
LeftToeBase 10.626339 -0.000000 -0.000000
Spine 33.051126 -3.183320 -4.468844
RightShoulder -43.730894 -43.601380 3.678176
RightArm -3.843179 -20.546604 78.341611
RightForeArm -23.204656 -0.000000 4.242436
RightHand 4.962483 -0.000000 52.267281
RightHandThumb1 -24.326973 -0.000000 -32.862282
LeftShoulder -38.796645 30.748680 8.349715
LeftArm -26.884717 14.066887 -91.944395
LeftForeArm 35.459272 -0.000000 0.850746
LeftHand 4.708586 0.000000 -49.001432
LeftHandThumb1 -26.253704 0.000000 33.147579
Head -60.478623 13.329414 -6.252383
1087
root -2.983915 32.600869 -9.917153 65.029117 -3.355598 2.822108
RightUpLeg -74.564446 -2.752289 3.821637
RightLeg -3.790670 -0.000000 0.000000
RightFoot 5.568477 -1.642944 2.838684
RightToeBase 8.083665 -0.000000 -0.000000
LeftUpLeg -72.546489 3.179990 -2.940383
LeftLeg -5.522679 -0.000000 0.000000
LeftFoot 6.898061 4.067103 -11.180541
LeftToeBase 10.611057 -0.000000 -0.000000
Spine 32.837276 -3.162416 -4.440124
RightShoulder -43.599158 -43.486997 3.602656
RightArm -3.805978 -20.561080 78.520170
RightForeArm -23.119687 -0.000000 4.257591
RightHand 4.891273 -0.000000 52.288804
RightHandThumb1 -24.326973 -0.000000 -32.862282
LeftShoulder -38.651493 30.543802 8.415705
LeftArm -26.928449 14.022604 -92.075109
LeftForeArm 35.337514 -0.000000 0.880544
LeftHand 4.764378 -0.000000 -48.947031
LeftHandThumb1 -26.253704 0.000000 33.147579
Head -60.306684 13.269454 -6.223664
1088
root -2.986375 32.603818 -9.889070 64.814006 -3.377877 2.818240
RightUpLeg -74.233107 -2.743472 3.759254
RightLeg -3.924367 -0.000000 0.000000
RightFoot 5.606702 -1.680571 2.770999
RightToeBase 8.027951 -0.000000 -0.000000
LeftUpLeg -72.261869 3.219230 -3.007077
LeftLeg -5.564997 -0.000000 0.000000
LeftFoot 6.877493 4.004939 -11.108362
LeftToeBase 10.665608 -0.000000 -0.000000
Spine 32.659956 -3.102664 -4.438203
RightShoulder -43.485843 -43.362501 3.549395
RightArm -3.769420 -20.581139 78.716621
RightForeArm -23.139299 0.000000 4.288653
RightHand 4.890371 -0.000000 52.158122
RightHandThumb1 -24.326973 -0.000000 -32.862282
LeftShoulder -38.528273 30.395998 8.479048
LeftArm -26.869736 13.989623 -92.193433
LeftForeArm 35.159051 -0.000000 0.876912
LeftHand 4.777225 0.000000 -48.980460
LeftHandThumb1 -26.253704 0.000000 33.147579
Head -60.132494 13.239151 -6.210652
1089
root -2.986595 32.606993 -9.858566 64.598916 -3.388055 2.821004
RightUpLeg -73.919845 -2.750177 3.708168
RightLeg -4.015588 -0.000000 0.000000
RightFoot 5.596120 -1.707381 2.731323
RightToeBase 8.045280 -0.000000 -0.000000
LeftUpLeg -71.964525 3.211301 -2.961417
LeftLeg -5.610495 -0.000000 0.000000
LeftFoot 6.830810 4.067319 -11.082571
LeftToeBase 10.696967 -0.000000 -0.000000
Spine 32.466171 -3.127830 -4.453425
RightShoulder -43.282345 -43.184415 3.431465
RightArm -3.741338 -20.673779 78.881094
RightForeArm -23.113354 -0.000000 4.274606
RightHand 4.939697 -0.000000 52.169495
RightHandThumb1 -24.326973 -0.000000 -32.862282
LeftShoulder -38.503608 30.210624 8.471552
LeftArm -26.824338 13.740797 -92.173161
LeftForeArm 35.279299 -0.000000 0.896265
LeftHand 4.763411 -0.000000 -49.066375
LeftHandThumb1 -26.253704 0.000000 33.147579
Head -59.979407 13.297172 -6.236193
